<svg xmlns="http://www.w3.org/2000/svg" width="34" height="21">
    <path fill="#191919" fill-rule="evenodd" d="M32.941 1.589c.233-.777 0-1.348-1.117-1.348h-3.688c-.938 0-1.37.493-1.605 1.038 0 0-1.876 4.545-4.533 7.497-.86.855-1.251 1.128-1.719 1.128-.235 0-.574-.273-.574-1.049V1.589c0-.931-.273-1.348-1.054-1.348h-5.796c-.586 0-.939.433-.939.842 0 .885 1.328 1.089 1.465 3.576v5.4c0 1.184-.215 1.399-.684 1.399-1.25 0-4.292-4.567-6.096-9.791C6.248.652 5.892.241 4.95.241H1.262C.208.241-.004.734-.004 1.279c0 .971 1.251 5.788 5.823 12.16 3.048 4.352 7.344 6.711 11.251 6.711 2.345 0 2.635-.524 2.635-1.426v-3.29c0-1.047.222-1.257.964-1.257.547 0 1.485.273 3.673 2.371 2.501 2.486 2.915 3.602 4.321 3.602h3.689c1.054 0 1.58-.524 1.277-1.559-.333-1.029-1.527-2.525-3.112-4.297-.859-1.01-2.149-2.098-2.541-2.642-.545-.7-.39-1.01 0-1.632 0 0 4.495-6.294 4.965-8.431z"/>
</svg>
